<?xml version="1.0" encoding="utf-8"?>
<!-- Generator: Adobe Illustrator 26.3.1, SVG Export Plug-In . SVG Version: 6.00 Build 0)  -->
<svg version="1.1" id="Calque_1" xmlns="http://www.w3.org/2000/svg" xmlns:xlink="http://www.w3.org/1999/xlink" x="0px" y="0px"
	 viewBox="0 0 841.9 1190.5" style="enable-background:new 0 0 841.9 1190.5;" xml:space="preserve">
<style type="text/css">
	.Voûte _x002D__x0020_Vert{fill:url(#SVGID_1_);stroke:#FFFFFF;stroke-width:0.25;stroke-miterlimit:1;}
	.st0{fill:url(#SVGID_00000015352703549047701290000001489674496305461147_);}
	.st1{fill:#707173;}
</style>
<linearGradient id="SVGID_1_" gradientUnits="userSpaceOnUse" x1="0" y1="1190.5508" x2="0.7071" y2="1189.8438">
	<stop  offset="0" style="stop-color:#259E2E"/>
	<stop  offset="0.9831" style="stop-color:#1C381D"/>
</linearGradient>
<g>
	
		<linearGradient id="SVGID_00000159470316370562494730000000453781635658127799_" gradientUnits="userSpaceOnUse" x1="266.4404" y1="389.3192" x2="558.1265" y2="389.3192" gradientTransform="matrix(1 -6.300000e-03 6.300000e-03 1 2.5794 2.9621)">
		<stop  offset="0" style="stop-color:#5A881A"/>
		<stop  offset="1.719946e-02" style="stop-color:#5C891A"/>
		<stop  offset="0.4632" style="stop-color:#95AF03"/>
		<stop  offset="0.8052" style="stop-color:#BAC800"/>
		<stop  offset="1" style="stop-color:#C9D200"/>
	</linearGradient>
	<path style="fill:url(#SVGID_00000159470316370562494730000000453781635658127799_);" d="M515.3,290.7
		C440.2,275.9,390.1,468.1,329.2,467c-43-0.8-56.8-83.2-15.4-91.6c20.9-4.3,48.7,18.4,67.1,39.6l0,0c0.2,0.3,0.5,0.4,0.9,0.4
		c0.4,0,0.7-0.2,1-0.4l0,0c1-1.3,2-2.7,2.7-3.8l0,0c0.2-0.3,0.3-0.5,0.3-0.8c0-0.2-0.1-0.5-0.2-0.7l0,0
		c-19.1-30.6-47.3-53.2-70.3-53.6c-28.4-0.5-52.3,27.8-40.7,73.7c6.6,25.9,24.3,53.9,58.5,54.6c61,1.1,127.7-150.3,171-150
		c37.2,0.2,40.4,63.3,21.5,101.1c-13.5,27-36.5,42.6-59.4,42.3c-22.4-0.3-39.5-11.7-56.8-33.6l0,0c-0.3-0.4-0.9-0.6-1.5-0.6
		c-1.1,0-2.1,0.9-2.1,2c0,0.4,0.1,0.8,0.3,1.2l0,0c21.6,31.7,49.4,41.5,67.6,41.9c52.4,1,82.8-61.9,87.8-102.5
		C567.7,336.1,555,298.5,515.3,290.7z"/>
	<g>
		<polygon class="st1" points="221.2,635.6 218.7,635.6 218.7,656.7 231.9,656.7 231.9,654.5 221.2,654.5 		"/>
		<polygon class="st1" points="247.9,656.7 261.1,656.7 261.1,654.5 250.3,654.5 250.3,647.2 259.5,647.2 259.5,644.9 250.3,644.9 
			250.3,637.8 261.1,637.8 261.1,635.6 247.9,635.6 		"/>
		<path class="st1" d="M310.1,637.6c-1.3-1.3-3.1-2-5.4-2h-7.3v21.1h7.3c2.2,0,4.1-0.7,5.4-2c2.1-2.1,2.1-5.6,2.1-8.4l0-0.4l0-0.4
			C312.2,642.6,312.2,639.7,310.1,637.6z M309.7,646.2c0,2.5,0,5.4-1.3,6.8c-1,1-2.3,1.5-4,1.5h-4.4v-16.7h4.4c1.7,0,3.1,0.5,4,1.5
			c1.4,1.4,1.4,3.9,1.3,6.3l0,0.3L309.7,646.2z"/>
		<polygon class="st1" points="336.9,629.1 334.2,633.8 336.4,633.8 339.7,629.1 		"/>
		<polygon class="st1" points="329.5,656.7 342.7,656.7 342.7,654.5 332,654.5 332,647.2 341.1,647.2 341.1,644.9 332,644.9 
			332,637.8 342.7,637.8 342.7,635.6 329.5,635.6 		"/>
		<path class="st1" d="M367.4,635.6h-7.9v21.1h2.4v-8.6h5.4c3.9,0,6.6-2.5,6.6-6.3C373.9,638.1,371.3,635.6,367.4,635.6z
			 M361.9,637.8h5.2c2.7,0,4.3,1.5,4.3,4c0,2.5-1.6,4.1-4.3,4.1h-5.2V637.8z"/>
		<path class="st1" d="M395.9,635.6h-2l-7.8,21.1h2.6l1.7-4.7h9l1.7,4.7h2.6L395.9,635.6L395.9,635.6z M398.6,649.8h-7.5l3.8-10.6
			L398.6,649.8z"/>
		<path class="st1" d="M433.5,641.5c0-3.6-2.5-5.9-6.3-5.9h-8.1v21.1h2.5v-9.3h4.8l4.8,9.3h2.9l-5-9.5
			C431.8,646.5,433.5,644.4,433.5,641.5z M421.5,637.8h5.5c2.5,0,4.1,1.4,4.1,3.7c0,2.3-1.5,3.7-4.1,3.7h-5.5V637.8z"/>
		<polygon class="st1" points="448.5,637.8 454.6,637.8 454.6,656.7 457,656.7 457,637.8 463,637.8 463,635.6 448.5,635.6 		"/>
		<polygon class="st1" points="479.1,656.7 492.3,656.7 492.3,654.5 481.5,654.5 481.5,647.2 490.7,647.2 490.7,644.9 481.5,644.9 
			481.5,637.8 492.3,637.8 492.3,635.6 479.1,635.6 		"/>
		<polygon class="st1" points="518.1,650.2 511.4,635.6 509,635.6 509,656.7 511.4,656.7 511.4,641.2 517,653.3 517.1,653.4 
			519.1,653.4 524.7,641.2 524.7,656.7 527.1,656.7 527.1,635.6 524.7,635.6 		"/>
		<polygon class="st1" points="545.3,656.7 558.5,656.7 558.5,654.5 547.7,654.5 547.7,647.2 556.9,647.2 556.9,644.9 547.7,644.9 
			547.7,637.8 558.5,637.8 558.5,635.6 545.3,635.6 		"/>
		<polygon class="st1" points="588.4,652 577.5,635.6 575.2,635.6 575.2,656.7 577.7,656.7 577.7,640.2 588.5,656.6 590.9,656.7 
			590.9,635.6 588.4,635.6 		"/>
		<polygon class="st1" points="606.9,637.8 612.9,637.8 612.9,656.7 615.4,656.7 615.4,637.8 621.4,637.8 621.4,635.6 606.9,635.6 
					"/>
		<path class="st1" d="M473.9,596.8h-28.3c-15.7,0-28.1-11.7-28.9-26h62.8c1.3,0,2.5-0.5,3.5-1.4c0.9-0.9,1.5-2.2,1.5-3.5
			c0-20.6-17.6-37-38.8-37c-21.2,0-38.7,16.4-38.8,37v3.5c0,20.7,17.5,37.1,38.8,37.2h28.3c2.7,0,4.9-2.2,4.9-4.9
			C478.8,599,476.6,596.8,473.9,596.8z M445.6,538.7c14.4,0,26,9.8,28.5,22.3h-57C419.5,548.5,431.2,538.7,445.6,538.7z"/>
		<path class="st1" d="M541.2,527.1L541.2,527.1c-21.9,0-39.8,17.5-39.8,39.4c0,0.1,0,35.6,0,35.6c0,2.8,2.3,5.1,5.1,5.1
			c2.9,0,5.2-2.3,5.2-5.1c0,0,0-36.2,0-36.3c0-15.9,13.4-28.5,29.5-28.5c2.8,0,5.2-2.3,5.2-5.2C546.3,529.4,544,527.1,541.2,527.1z"
			/>
		<path class="st1" d="M286.2,527.2c-22,0-39.8,17.8-39.8,39.8c0,22,17.8,39.8,39.8,39.8c21.9,0,39.8-17.8,39.8-39.8
			C326,545,308.1,527.2,286.2,527.2z M286.2,596.4c-16.3,0-29.5-13.2-29.5-29.5c0-16.3,13.2-29.5,29.5-29.5
			c16.3,0,29.4,13.2,29.5,29.5C315.6,583.2,302.5,596.4,286.2,596.4z"/>
		<path class="st1" d="M236.8,598.8c-6-6.7-10.1-13.8-10.6-31.3l0-0.9l0-48.2c0-2.8-2.3-5.1-5.2-5.1c-2.8,0-5.1,2.3-5.1,5.2l0,48.1
			c0,0.4,0,0.8,0,1.2c0.2,19.1,5.8,30.1,13.3,38.1c1,1.1,2.5,1.7,3.9,1.7c1.2,0,2.4-0.5,3.4-1.4
			C238.6,604.2,238.7,600.9,236.8,598.8L236.8,598.8z"/>
		<path class="st1" d="M438,518.7l14.4,3.2c2.6,0.6,5.2-1.1,5.8-3.7c0.6-2.6-1.1-5.2-3.7-5.8l-14.4-3.1c-2.6-0.6-5.2,1.1-5.8,3.7
			C433.7,515.5,435.4,518.1,438,518.7z"/>
		<path class="st1" d="M585.5,528.9c-21.2,0-38.7,16.4-38.8,37v3.5c0,20.7,17.5,37.1,38.8,37.2h28.3c2.7,0,4.9-2.2,4.9-4.9
			c0-2.7-2.2-4.9-4.9-4.9h-28.3c-15.7,0-28.1-11.7-28.9-26h62.8c1.3,0,2.5-0.5,3.5-1.4c0.9-0.9,1.5-2.2,1.5-3.5
			C624.3,545.3,606.7,529,585.5,528.9z M557,561c2.5-12.5,14.1-22.3,28.5-22.3c14.4,0,26,9.8,28.5,22.3H557z"/>
		<path class="st1" d="M347.3,606.6L347.3,606.6C347.4,606.6,347.4,606.6,347.3,606.6L347.3,606.6z"/>
		<path class="st1" d="M395,601.7c0-2.7-2.1-4.9-4.7-4.9h-43c-1.8,0-3.3-1.5-3.3-3.3c0-1,0.5-1.9,1.2-2.5l0,0l47-38.9
			c2.9-2.4,4.7-6,4.7-10.1c0-7.2-5.9-13.1-13.1-13.1l-0.1,0h-38.6c-2.6,0-4.7,2.2-4.7,4.9c0,2.7,2.1,4.9,4.7,4.9H384
			c1.8,0,3.3,1.5,3.3,3.3c0,1-0.5,1.9-1.2,2.5l-47,38.9l0,0c-2.9,2.4-4.7,6-4.7,10.1c0,7.2,5.9,13.1,13.1,13.1h43
			C392.9,606.6,395,604.4,395,601.7z"/>
	</g>
</g>
</svg>
